<svg xmlns="http://www.w3.org/2000/svg" xmlns:xlink="http://www.w3.org/1999/xlink" width="500" zoomAndPan="magnify" viewBox="0 0 375 374.999991" height="500" preserveAspectRatio="xMidYMid meet" version="1.0"><defs><clipPath id="d94b2f2837"><path d="M 26 176 L 116 176 L 116 351.195312 L 26 351.195312 Z M 26 176 " clip-rule="nonzero"/></clipPath><clipPath id="865cc7e2b0"><path d="M 115 25 L 356.078125 25 L 356.078125 351.195312 L 115 351.195312 Z M 115 25 " clip-rule="nonzero"/></clipPath></defs><rect x="-37.5" width="450" fill="#ffffff" y="-37.499999" height="449.999989" fill-opacity="1"/><rect x="-37.5" width="450" fill="#ffffff" y="-37.499999" height="449.999989" fill-opacity="1"/><g clip-path="url(#d94b2f2837)"><path fill="#003b71" d="M 102.21875 298.578125 L 76.667969 255.433594 L 55.46875 238.40625 L 44.867188 196.019531 L 30.671875 185.042969 L 26.320312 176.71875 L 26.320312 326.203125 C 26.320312 340.019531 37.488281 351.183594 51.304688 351.183594 L 115.46875 351.183594 L 101.839844 314.660156 Z M 102.21875 298.578125 " fill-opacity="1" fill-rule="nonzero"/></g><g clip-path="url(#865cc7e2b0)"><path fill="#3fa1da" d="M 356.414062 50.695312 C 356.414062 36.878906 345.246094 25.714844 331.429688 25.714844 L 127.960938 25.714844 C 133.070312 41.042969 158.054688 106.515625 166.382812 120.328125 C 175.089844 134.898438 196.097656 164.039062 197.234375 165.554688 L 198.9375 167.824219 C 201.210938 167.445312 205.183594 166.6875 206.886719 166.5 L 207.644531 166.308594 L 208.78125 166.878906 C 209.347656 167.066406 209.539062 167.257812 210.484375 167.824219 L 211.621094 168.582031 L 211.621094 173.3125 L 219.191406 184.855469 L 251.367188 180.125 C 253.636719 177.097656 261.019531 169.90625 266.699219 162.148438 L 273.511719 157.417969 L 272 158.742188 C 272.1875 159.308594 272.1875 159.6875 272.375 160.253906 C 272.753906 161.390625 272.945312 162.527344 273.324219 163.28125 C 274.835938 165.742188 278.8125 168.203125 298.6875 178.800781 L 299.253906 179.175781 C 305.3125 182.394531 313.640625 186.933594 318.179688 189.585938 L 319.886719 190.53125 L 319.128906 192.421875 C 316.667969 199.046875 310.421875 213.238281 308.339844 216.832031 C 308.148438 217.210938 288.085938 250.703125 285.625 255.054688 L 285.4375 255.433594 L 285.246094 255.625 C 284.679688 256.191406 281.082031 259.597656 277.296875 263.003906 C 273.703125 266.410156 269.917969 270.003906 268.96875 270.949219 L 268.589844 271.328125 L 268.023438 271.519531 C 265.5625 272.277344 247.582031 277.953125 244.363281 278.898438 L 233.765625 288.171875 C 233.574219 289.683594 232.628906 295.171875 232.628906 295.171875 L 231.683594 295.738281 C 228.65625 297.441406 215.027344 305.011719 204.238281 311.253906 C 196.855469 315.417969 189.851562 319.390625 189.285156 319.582031 L 188.90625 319.769531 L 188.527344 319.769531 C 187.390625 320.148438 162.597656 327.339844 146.128906 332.070312 L 115.46875 351.183594 L 331.621094 350.234375 C 345.4375 350.234375 356.414062 339.070312 356.414062 325.257812 Z M 356.414062 50.695312 " fill-opacity="1" fill-rule="nonzero"/></g></svg>